<?xml version="1.0" encoding="utf-8"?>
<svg id="master-artboard" viewBox="0 0 1400 980" version="1.1" xmlns="http://www.w3.org/2000/svg" x="0px" y="0px" style="enable-background:new 0 0 1400 980;" width="1400px" height="980px"><rect id="ee-background" x="0" y="0" width="1400" height="980" style="fill: white; fill-opacity: 0; pointer-events: none;"/><defs><linearGradient id="gradient-0" gradientUnits="userSpaceOnUse" x1="236" y1="1202.60009765625" x2="236" y2="1309.5">
                <stop offset="0" style="stop-color: #ffffff"/>
                <stop offset="1" style="stop-color: #ffffff"/>
              </linearGradient></defs>











































<g transform="matrix(0.9999999999999999, 0, 0, 0.9999999999999999, 1.8189894035458565e-12, 4.547473508864641e-13)">
		<path class="st13" d="M448.4,599.9" style="fill: rgb(223, 243, 251);"/>
	</g>





















































<g transform="matrix(1.8420410607542195, 0, 0, 1.8420410607542195, -269.68299292666353, -1632.1502180949783)"><g id="Layer_2_39_" transform="matrix(1, 0, 0, 1, 0, 0)">
	<g id="Layer_1-2_37_">
		<g>
			<path class="st0" d="M236,1309.5l-46-26.7v-53.5l46-26.7l46,26.7v53.5L236,1309.5z M196,1279.3l40,23.3l40-23.3v-46.5l-40-23.3&#10;&#9;&#9;&#9;&#9;l-40,23.3V1279.3z" style="fill: rgb(51, 51, 51);"/>
		</g>
	</g>
</g></g><g transform="matrix(1.0823836536497844, -0.10195945955221127, 0.10195945955221127, 1.0823836536497844, -121.58999656770847, -837.3525064929642)"><g id="g-1" transform="matrix(1, 0, 0, 1, 0, 0)">
	<g id="g-2">
		<g>
			<path class="st0" d="M236,1309.5l-46-26.7v-53.5l46-26.7l46,26.7v53.5L236,1309.5z M196,1279.3l40,23.3l40-23.3v-46.5l-40-23.3&#10;&#9;&#9;&#9;&#9;l-40,23.3V1279.3z" style="fill: rgb(51, 51, 51);"/>
		</g>
	</g>
</g></g><g transform="matrix(3.763150419110063, 0, 0, 3.763150419110063, -542.5189768171913, -3995.745709792571)"><g id="g-3" transform="matrix(1, 0, 0, 1, 0, 0)">
	<g id="g-4">
		<g>
			<path class="st0" d="M236,1309.5l-46-26.7v-53.5l46-26.7l46,26.7v53.5L236,1309.5z M196,1279.3l40,23.3l40-23.3v-46.5l-40-23.3&#10;&#9;&#9;&#9;&#9;l-40,23.3V1279.3z" style="fill: rgb(51, 51, 51);"/>
		</g>
	</g>
</g></g><g transform="matrix(2.1538528804878565, 0, 0, 2.1538528804878565, -46.41751835058457, -2243.4186897937207)"><g id="g-5" transform="matrix(1, 0, 0, 1, 0, 0)">
	<g id="g-6">
		<g>
			<path class="st0" d="M236,1309.5l-46-26.7v-53.5l46-26.7l46,26.7v53.5L236,1309.5z M196,1279.3l40,23.3l40-23.3v-46.5l-40-23.3&#10;&#9;&#9;&#9;&#9;l-40,23.3V1279.3z" style="fill: rgb(51, 51, 51);"/>
		</g>
	</g>
</g></g><g transform="matrix(1.5400657467698693, 0, 0, 1.5400657467698693, -240.1038141652516, -1478.1467206371256)"><g id="g-7" transform="matrix(1, 0, 0, 1, 0, 0)">
	<g id="g-8">
		<g>
			<path class="st0" d="M236,1309.5l-46-26.7v-53.5l46-26.7l46,26.7v53.5L236,1309.5z M196,1279.3l40,23.3l40-23.3v-46.5l-40-23.3&#10;&#9;&#9;&#9;&#9;l-40,23.3V1279.3z" style="fill: rgb(51, 51, 51);"/>
		</g>
	</g>
</g></g><g transform="matrix(4.5149641037638775, 0.1152465392458751, -0.1152465392458751, 4.5149641037638775, -324.5838350082249, -4894.053222135749)"><g id="g-9" transform="matrix(1, 0, 0, 1, 0, 0)">
	<g id="g-10">
		<g>
			<path class="st0" d="M236,1309.5l-46-26.7v-53.5l46-26.7l46,26.7v53.5L236,1309.5z M196,1279.3l40,23.3l40-23.3v-46.5l-40-23.3&#10;&#9;&#9;&#9;&#9;l-40,23.3V1279.3z" style="fill: url('#gradient-0'); stroke: rgb(0, 0, 0); stroke-width: 0; stroke-opacity: 1;"/>
		</g>
	</g>
</g></g></svg>
